<?xml version="1.0" encoding="UTF-8"?>
<svg xmlns="http://www.w3.org/2000/svg" xmlns:xlink="http://www.w3.org/1999/xlink" width="16pt" height="16pt" viewBox="0 -2 16 20" version="1.1">
<g id="surface1">
<path style=" stroke:#969aa5;fill-rule:nonzero;fill:rgb(0%,0%,0%);fill-opacity:1;" d="M 8 0.6875 C 3.589844 0.6875 0 3.667969 0 7.332031 C 0 9.214844 0.960938 10.996094 2.652344 12.261719 L 1.367188 14.832031 C 1.300781 14.964844 1.332031 15.128906 1.445312 15.230469 C 1.507812 15.285156 1.585938 15.3125 1.664062 15.3125 C 1.730469 15.3125 1.796875 15.296875 1.851562 15.257812 L 4.664062 13.371094 C 5.722656 13.773438 6.84375 13.980469 8 13.980469 C 12.410156 13.980469 16 11 16 7.332031 C 16 3.667969 12.410156 0.6875 8 0.6875 Z M 8 13.3125 C 6.871094 13.3125 5.773438 13.101562 4.746094 12.6875 C 4.644531 12.648438 4.53125 12.65625 4.4375 12.71875 L 2.53125 14 L 3.375 12.308594 C 3.449219 12.160156 3.402344 11.980469 3.265625 11.882812 C 1.613281 10.738281 0.664062 9.082031 0.664062 7.332031 C 0.664062 4.035156 3.957031 1.351562 8 1.351562 C 12.042969 1.351562 15.332031 4.035156 15.332031 7.332031 C 15.332031 10.632812 12.042969 13.3125 8 13.3125 Z M 8 13.3125 "/>
</g>
</svg>
