<?xml version="1.0" encoding="UTF-8"?>
<svg xmlns="http://www.w3.org/2000/svg" xmlns:xlink="http://www.w3.org/1999/xlink" width="16pt" height="15pt" viewBox="0 0 16 15" version="1.1">
<g id="surface1">
<path  style=" stroke:#969aa5;fill-rule:nonzero;fill:rgb(0%,0%,0%);fill-opacity:1;" d="M 15.179688 5.925781 L 14.058594 5.746094 C 13.941406 5.394531 13.789062 5.050781 13.605469 4.726562 L 14.269531 3.855469 C 14.550781 3.488281 14.507812 2.984375 14.160156 2.664062 L 13.164062 1.730469 C 12.976562 1.554688 12.730469 1.457031 12.46875 1.457031 C 12.261719 1.457031 12.0625 1.515625 11.894531 1.628906 L 10.964844 2.25 C 10.605469 2.070312 10.226562 1.925781 9.835938 1.8125 L 9.648438 0.773438 C 9.570312 0.324219 9.15625 0 8.671875 0 L 7.265625 0 C 6.78125 0 6.371094 0.324219 6.289062 0.773438 L 6.097656 1.839844 C 5.722656 1.949219 5.359375 2.09375 5.011719 2.269531 L 4.089844 1.648438 C 3.925781 1.535156 3.722656 1.476562 3.515625 1.476562 C 3.253906 1.476562 3 1.574219 2.816406 1.75 L 1.816406 2.683594 C 1.476562 3 1.429688 3.507812 1.710938 3.875 L 2.378906 4.757812 C 2.195312 5.085938 2.050781 5.425781 1.933594 5.78125 L 0.824219 5.957031 C 0.347656 6.03125 0 6.417969 0 6.871094 L 0 8.191406 C 0 8.644531 0.347656 9.03125 0.824219 9.105469 L 1.960938 9.289062 C 2.078125 9.636719 2.234375 9.980469 2.417969 10.304688 L 1.761719 11.164062 C 1.480469 11.535156 1.523438 12.039062 1.867188 12.359375 L 2.863281 13.292969 C 3.050781 13.46875 3.300781 13.566406 3.5625 13.566406 C 3.769531 13.566406 3.96875 13.503906 4.132812 13.390625 L 5.074219 12.765625 C 5.410156 12.933594 5.765625 13.066406 6.128906 13.171875 L 6.316406 14.226562 C 6.398438 14.675781 6.808594 15 7.292969 15 L 8.703125 15 C 9.1875 15 9.597656 14.675781 9.679688 14.226562 L 9.871094 13.171875 C 10.246094 13.0625 10.613281 12.921875 10.960938 12.75 L 11.886719 13.371094 C 12.050781 13.484375 12.253906 13.542969 12.460938 13.542969 C 12.722656 13.542969 12.972656 13.445312 13.160156 13.269531 L 14.15625 12.335938 C 14.496094 12.015625 14.542969 11.511719 14.261719 11.144531 L 13.601562 10.273438 C 13.785156 9.941406 13.9375 9.601562 14.050781 9.25 L 15.175781 9.074219 C 15.652344 9 16 8.613281 16 8.160156 L 16 6.839844 C 16.007812 6.386719 15.660156 6 15.179688 5.925781 Z M 15.105469 8.160156 C 15.105469 8.199219 15.074219 8.234375 15.03125 8.242188 L 13.625 8.460938 C 13.449219 8.488281 13.308594 8.609375 13.265625 8.769531 C 13.140625 9.230469 12.945312 9.671875 12.683594 10.082031 C 12.59375 10.226562 12.601562 10.40625 12.703125 10.542969 L 13.53125 11.632812 C 13.554688 11.664062 13.550781 11.714844 13.519531 11.742188 L 12.523438 12.675781 C 12.5 12.695312 12.476562 12.699219 12.460938 12.699219 C 12.441406 12.699219 12.421875 12.695312 12.410156 12.683594 L 11.25 11.910156 C 11.105469 11.8125 10.914062 11.808594 10.757812 11.890625 C 10.320312 12.136719 9.851562 12.316406 9.359375 12.4375 C 9.183594 12.476562 9.054688 12.613281 9.027344 12.773438 L 8.789062 14.089844 C 8.785156 14.132812 8.746094 14.160156 8.703125 14.160156 L 7.296875 14.160156 C 7.253906 14.160156 7.214844 14.132812 7.210938 14.089844 L 6.976562 12.773438 C 6.945312 12.609375 6.816406 12.476562 6.644531 12.4375 C 6.167969 12.320312 5.707031 12.140625 5.273438 11.910156 C 5.203125 11.871094 5.125 11.855469 5.046875 11.855469 C 4.957031 11.855469 4.863281 11.878906 4.785156 11.933594 L 3.617188 12.710938 C 3.601562 12.722656 3.582031 12.726562 3.566406 12.726562 C 3.554688 12.726562 3.527344 12.726562 3.503906 12.703125 L 2.507812 11.769531 C 2.476562 11.742188 2.472656 11.695312 2.496094 11.664062 L 3.320312 10.582031 C 3.421875 10.445312 3.429688 10.261719 3.339844 10.117188 C 3.078125 9.710938 2.878906 9.269531 2.75 8.808594 C 2.703125 8.648438 2.5625 8.527344 2.390625 8.496094 L 0.976562 8.273438 C 0.933594 8.265625 0.902344 8.230469 0.902344 8.191406 L 0.902344 6.871094 C 0.902344 6.832031 0.933594 6.796875 0.976562 6.789062 L 2.371094 6.570312 C 2.546875 6.542969 2.691406 6.421875 2.734375 6.257812 C 2.859375 5.796875 3.046875 5.351562 3.304688 4.941406 C 3.394531 4.796875 3.386719 4.617188 3.28125 4.484375 L 2.449219 3.386719 C 2.425781 3.355469 2.429688 3.308594 2.460938 3.28125 L 3.457031 2.347656 C 3.480469 2.324219 3.503906 2.320312 3.519531 2.320312 C 3.539062 2.320312 3.554688 2.328125 3.570312 2.335938 L 4.722656 3.109375 C 4.871094 3.207031 5.0625 3.210938 5.21875 3.128906 C 5.652344 2.882812 6.125 2.695312 6.613281 2.574219 C 6.785156 2.53125 6.914062 2.398438 6.945312 2.238281 L 7.1875 0.910156 C 7.191406 0.871094 7.230469 0.84375 7.273438 0.84375 L 8.679688 0.84375 C 8.722656 0.84375 8.761719 0.871094 8.765625 0.910156 L 9 2.21875 C 9.03125 2.382812 9.160156 2.519531 9.335938 2.558594 C 9.839844 2.679688 10.320312 2.863281 10.769531 3.113281 C 10.921875 3.195312 11.113281 3.191406 11.261719 3.09375 L 12.414062 2.316406 C 12.429688 2.304688 12.445312 2.300781 12.464844 2.300781 C 12.476562 2.300781 12.503906 2.304688 12.527344 2.324219 L 13.523438 3.257812 C 13.554688 3.285156 13.554688 3.332031 13.535156 3.367188 L 12.707031 4.453125 C 12.605469 4.585938 12.597656 4.769531 12.6875 4.914062 C 12.949219 5.324219 13.140625 5.765625 13.269531 6.226562 C 13.3125 6.390625 13.457031 6.511719 13.628906 6.535156 L 15.035156 6.757812 C 15.078125 6.765625 15.109375 6.800781 15.109375 6.839844 L 15.109375 8.160156 Z M 15.105469 8.160156 "/>
<path style=" stroke:#969aa5;fill-rule:nonzero;fill:rgb(0%,0%,0%);fill-opacity:1;" d="M 8 4.261719 C 6.097656 4.261719 4.550781 5.710938 4.550781 7.5 C 4.550781 9.285156 6.097656 10.734375 8 10.734375 C 9.90625 10.734375 11.453125 9.285156 11.453125 7.5 C 11.453125 5.710938 9.90625 4.261719 8 4.261719 Z M 8 9.890625 C 6.59375 9.890625 5.453125 8.816406 5.453125 7.5 C 5.453125 6.179688 6.59375 5.109375 8 5.109375 C 9.410156 5.109375 10.550781 6.179688 10.550781 7.5 C 10.550781 8.816406 9.410156 9.890625 8 9.890625 Z M 8 9.890625 "/>
</g>
</svg>
